<?xml version="1.0" encoding="iso-8859-1"?>
<!-- Generator: Adobe Illustrator 19.0.0, SVG Export Plug-In . SVG Version: 6.00 Build 0)  -->
<svg version="1.1" id="Layer_1" xmlns="http://www.w3.org/2000/svg" xmlns:xlink="http://www.w3.org/1999/xlink" x="0px" y="0px"
	 viewBox="0 0 512 512" style="enable-background:new 0 0 512 512;" xml:space="preserve">
<path style="fill:#F5EBDC;" d="M462.716,141.263c-22.868,3.598-51.839,12.365-81.582,24.685s-56.428,26.606-75.143,40.232
	c-0.422,0.307-0.764,0.682-1.163,1.007c0.326-0.398,0.684-0.758,0.99-1.178c13.629-18.718,27.914-45.401,40.234-75.143
	c12.319-29.741,21.086-58.711,24.684-81.583c1.992-12.629-4.903-24.879-16.78-29.8c-11.861-4.913-25.398-1.124-32.915,9.215
	c-13.629,18.718-27.914,45.401-40.234,75.143c-12.319,29.741-21.086,58.711-24.684,81.583c-0.089,0.572-0.067,1.133-0.121,1.703
	c-0.054-0.569-0.032-1.132-0.121-1.705c-3.598-22.868-12.365-51.839-24.685-81.582s-26.606-56.428-40.232-75.143
	c-7.529-10.337-21.062-14.127-32.94-9.207c-11.855,4.91-18.743,17.16-16.758,29.793c3.598,22.868,12.365,51.839,24.685,81.582
	s26.606,56.428,40.232,75.143c0.341,0.468,0.755,0.851,1.119,1.291c-0.44-0.364-0.822-0.777-1.29-1.118
	c-18.718-13.629-45.401-27.914-75.143-40.234c-29.741-12.319-58.711-21.086-81.583-24.684c-12.617-1.986-24.873,4.896-29.8,16.78
	c-4.91,11.854-1.122,25.393,9.215,32.915c18.718,13.629,45.401,27.914,75.143,40.234c29.741,12.319,58.711,21.086,81.583,24.684
	c0.513,0.082,1.022,0.082,1.533,0.133c-0.513,0.052-1.02,0.029-1.535,0.109c-22.868,3.598-51.839,12.365-81.582,24.685
	s-56.428,26.606-75.143,40.232c-10.337,7.529-14.127,21.062-9.207,32.94c4.91,11.855,17.16,18.743,29.793,16.758
	c22.868-3.598,51.839-12.365,81.582-24.685s56.428-26.606,75.143-40.232c0.466-0.34,0.846-0.75,1.286-1.113
	c-0.362,0.439-0.774,0.819-1.112,1.284c-13.629,18.718-27.914,45.401-40.234,75.143c-12.319,29.741-21.086,58.711-24.684,81.583
	c-1.992,12.629,4.903,24.879,16.78,29.8c7.006,2.902,14.596,2.767,21.192,0.035c4.564-1.89,8.646-5.023,11.723-9.25
	c13.629-18.718,27.914-45.401,40.234-75.143c12.319-29.741,21.086-58.711,24.684-81.583c0.089-0.572,0.067-1.133,0.121-1.703
	c0.054,0.569,0.032,1.132,0.121,1.705c3.598,22.868,12.365,51.839,24.685,81.582c12.32,29.743,26.606,56.428,40.232,75.143
	c7.529,10.337,21.062,14.127,32.94,9.207c11.855-4.91,18.743-17.16,16.758-29.793c-3.598-22.868-12.365-51.839-24.685-81.582
	s-26.606-56.428-40.232-75.143c-0.341-0.468-0.755-0.851-1.119-1.291c0.44,0.364,0.822,0.777,1.29,1.118
	c18.718,13.629,45.401,27.914,75.143,40.234c29.741,12.319,58.711,21.086,81.583,24.684c5.162,0.815,10.263,0.143,14.827-1.747
	c6.594-2.731,12.064-8.011,14.973-15.033c4.91-11.854,1.122-25.393-9.215-32.915c-18.718-13.629-45.401-27.914-75.143-40.234
	c-29.741-12.319-58.711-21.086-81.583-24.684c-0.573-0.089-1.135-0.068-1.706-0.121c0.57-0.054,1.135-0.032,1.708-0.121
	c22.868-3.598,51.839-12.365,81.582-24.685s56.428-26.606,75.143-40.232c10.337-7.529,14.127-21.062,9.207-32.94
	C487.597,146.166,475.348,139.277,462.716,141.263z"/>
<path style="fill:#EBDED4;" d="M391.267,190.415L272.31,239.689l49.274-118.959c1.866-4.505-0.271-9.666-4.777-11.532
	c-4.505-1.866-9.666,0.271-11.532,4.777L256,232.934l-49.273-118.957c-1.866-4.504-7.03-6.643-11.534-4.778
	c-4.504,1.866-6.643,7.03-4.778,11.533l49.273,118.957l-118.959-49.274c-4.505-1.866-9.666,0.271-11.532,4.777
	s0.271,9.666,4.777,11.532L232.934,256l-118.957,49.273c-4.504,1.866-6.643,7.03-4.778,11.534c1.866,4.504,7.03,6.643,11.533,4.778
	l118.957-49.273l-49.274,118.959c-1.866,4.505,0.271,9.666,4.777,11.532c2.253,0.934,4.67,0.865,6.756,0.001
	s3.843-2.525,4.777-4.778L256,279.066l49.273,118.957c1.866,4.504,7.03,6.643,11.534,4.778c4.504-1.866,6.643-7.03,4.778-11.534
	L272.312,272.31l118.959,49.274c2.253,0.934,4.67,0.865,6.756,0.001s3.843-2.525,4.777-4.778c1.866-4.505-0.271-9.666-4.777-11.532
	L279.066,256l118.957-49.273c4.504-1.866,6.643-7.03,4.778-11.534C400.936,190.689,395.772,188.55,391.267,190.415z"/>
<path id="SVGCleanerId_0" style="fill:#FFF5DC;" d="M490.888,229.103c-22.504-5.427-52.625-8.414-84.819-8.414
	s-62.315,2.987-84.819,8.414c-0.507,0.122-0.967,0.338-1.461,0.486c0.454-0.244,0.921-0.438,1.366-0.711
	c19.754-12.077,43.164-31.263,65.927-54.026s41.949-46.173,54.026-65.927c6.673-10.905,4.991-24.862-4.099-33.953
	c-9.078-9.078-23.034-10.759-33.935-4.082c-19.754,12.077-43.164,31.263-65.927,54.026s-41.949,46.173-54.026,65.927
	c-0.301,0.493-0.497,1.021-0.764,1.526c0.168-0.547,0.404-1.058,0.54-1.621c5.427-22.503,8.414-52.623,8.414-84.818
	s-2.987-62.315-8.414-84.819C279.896,8.681,268.845,0,255.987,0c-12.832,0-23.884,8.681-26.883,21.112
	c-5.427,22.504-8.414,52.625-8.414,84.819s2.987,62.315,8.414,84.819c0.136,0.563,0.372,1.075,0.54,1.621
	c-0.268-0.505-0.462-1.033-0.764-1.526c-12.077-19.754-31.263-43.164-54.026-65.927s-46.173-41.949-65.927-54.026
	c-10.897-6.664-24.853-4.995-33.953,4.099c-9.074,9.074-10.754,23.03-4.082,33.935c12.077,19.754,31.263,43.164,54.026,65.927
	s46.173,41.949,65.927,54.026c0.444,0.271,0.913,0.467,1.365,0.711c-0.494-0.149-0.953-0.364-1.46-0.486
	c-22.504-5.428-52.625-8.415-84.819-8.415s-62.315,2.987-84.819,8.414C8.681,232.104,0,243.155,0,256.013
	c0,12.832,8.681,23.884,21.112,26.883c22.504,5.427,52.625,8.414,84.819,8.414s62.315-2.987,84.819-8.414
	c0.561-0.136,1.069-0.37,1.613-0.537c-0.503,0.267-1.028,0.46-1.518,0.761c-19.754,12.077-43.164,31.263-65.927,54.026
	s-41.949,46.173-54.026,65.927c-6.673,10.905-4.991,24.862,4.099,33.953c5.362,5.362,12.427,8.142,19.564,8.142
	c4.94,0,9.909-1.332,14.37-4.061c19.754-12.077,43.164-31.263,65.927-54.026s41.949-46.173,54.026-65.927
	c0.301-0.493,0.497-1.021,0.764-1.526c-0.168,0.547-0.404,1.058-0.54,1.621c-5.426,22.504-8.413,52.625-8.413,84.819
	s2.987,62.315,8.414,84.819c3,12.431,14.051,21.112,26.91,21.112c12.832,0,23.884-8.681,26.883-21.112
	c5.427-22.504,8.414-52.625,8.414-84.819s-2.987-62.315-8.414-84.819c-0.136-0.563-0.372-1.075-0.54-1.621
	c0.268,0.505,0.462,1.033,0.764,1.526c12.077,19.754,31.263,43.164,54.026,65.927s46.173,41.949,65.927,54.026
	c4.457,2.729,9.427,4.061,14.367,4.061c7.138,0,14.211-2.784,19.586-8.16c9.074-9.074,10.754-23.03,4.082-33.935
	c-12.077-19.754-31.263-43.164-54.026-65.927s-46.173-41.949-65.927-54.026c-0.494-0.301-1.023-0.498-1.529-0.765
	c0.548,0.169,1.06,0.405,1.624,0.541c22.504,5.427,52.625,8.414,84.819,8.414s62.315-2.987,84.819-8.414
	c12.431-3,21.112-14.051,21.112-26.91C512,243.155,503.319,232.104,490.888,229.103z"/>
<path id="SVGCleanerId_1" style="fill:#F0E4C8;" d="M406.069,247.172H277.31l91.048-91.048c3.448-3.448,3.448-9.035,0-12.483
	c-3.448-3.448-9.035-3.448-12.483,0l-91.047,91.048V105.931c0-4.875-3.953-8.828-8.828-8.828s-8.828,3.953-8.828,8.828v128.758
	l-91.048-91.048c-3.448-3.448-9.035-3.448-12.483,0c-3.448,3.448-3.448,9.035,0,12.483l91.048,91.048H105.931
	c-4.875,0-8.828,3.953-8.828,8.828s3.953,8.828,8.828,8.828h128.758l-91.048,91.048c-3.448,3.448-3.448,9.035,0,12.483
	c1.725,1.725,3.982,2.586,6.241,2.586s4.518-0.862,6.241-2.586l91.049-91.049v128.759c0,4.875,3.953,8.828,8.828,8.828
	s8.828-3.953,8.828-8.828V277.31l91.048,91.048c1.725,1.725,3.982,2.586,6.241,2.586c2.259,0,4.517-0.862,6.241-2.586
	c3.448-3.448,3.448-9.035,0-12.483l-91.048-91.047h128.759c4.875,0,8.828-3.953,8.828-8.828S410.944,247.172,406.069,247.172z"/>
<g>
	<path id="SVGCleanerId_0_1_" style="fill:#FFF5DC;" d="M490.888,229.103c-22.504-5.427-52.625-8.414-84.819-8.414
		s-62.315,2.987-84.819,8.414c-0.507,0.122-0.967,0.338-1.461,0.486c0.454-0.244,0.921-0.438,1.366-0.711
		c19.754-12.077,43.164-31.263,65.927-54.026s41.949-46.173,54.026-65.927c6.673-10.905,4.991-24.862-4.099-33.953
		c-9.078-9.078-23.034-10.759-33.935-4.082c-19.754,12.077-43.164,31.263-65.927,54.026s-41.949,46.173-54.026,65.927
		c-0.301,0.493-0.497,1.021-0.764,1.526c0.168-0.547,0.404-1.058,0.54-1.621c5.427-22.503,8.414-52.623,8.414-84.818
		s-2.987-62.315-8.414-84.819C279.896,8.681,268.845,0,255.987,0c-12.832,0-23.884,8.681-26.883,21.112
		c-5.427,22.504-8.414,52.625-8.414,84.819s2.987,62.315,8.414,84.819c0.136,0.563,0.372,1.075,0.54,1.621
		c-0.268-0.505-0.462-1.033-0.764-1.526c-12.077-19.754-31.263-43.164-54.026-65.927s-46.173-41.949-65.927-54.026
		c-10.897-6.664-24.853-4.995-33.953,4.099c-9.074,9.074-10.754,23.03-4.082,33.935c12.077,19.754,31.263,43.164,54.026,65.927
		s46.173,41.949,65.927,54.026c0.444,0.271,0.913,0.467,1.365,0.711c-0.494-0.149-0.953-0.364-1.46-0.486
		c-22.504-5.428-52.625-8.415-84.819-8.415s-62.315,2.987-84.819,8.414C8.681,232.104,0,243.155,0,256.013
		c0,12.832,8.681,23.884,21.112,26.883c22.504,5.427,52.625,8.414,84.819,8.414s62.315-2.987,84.819-8.414
		c0.561-0.136,1.069-0.37,1.613-0.537c-0.503,0.267-1.028,0.46-1.518,0.761c-19.754,12.077-43.164,31.263-65.927,54.026
		s-41.949,46.173-54.026,65.927c-6.673,10.905-4.991,24.862,4.099,33.953c5.362,5.362,12.427,8.142,19.564,8.142
		c4.94,0,9.909-1.332,14.37-4.061c19.754-12.077,43.164-31.263,65.927-54.026s41.949-46.173,54.026-65.927
		c0.301-0.493,0.497-1.021,0.764-1.526c-0.168,0.547-0.404,1.058-0.54,1.621c-5.426,22.504-8.413,52.625-8.413,84.819
		s2.987,62.315,8.414,84.819c3,12.431,14.051,21.112,26.91,21.112c12.832,0,23.884-8.681,26.883-21.112
		c5.427-22.504,8.414-52.625,8.414-84.819s-2.987-62.315-8.414-84.819c-0.136-0.563-0.372-1.075-0.54-1.621
		c0.268,0.505,0.462,1.033,0.764,1.526c12.077,19.754,31.263,43.164,54.026,65.927s46.173,41.949,65.927,54.026
		c4.457,2.729,9.427,4.061,14.367,4.061c7.138,0,14.211-2.784,19.586-8.16c9.074-9.074,10.754-23.03,4.082-33.935
		c-12.077-19.754-31.263-43.164-54.026-65.927s-46.173-41.949-65.927-54.026c-0.494-0.301-1.023-0.498-1.529-0.765
		c0.548,0.169,1.06,0.405,1.624,0.541c22.504,5.427,52.625,8.414,84.819,8.414s62.315-2.987,84.819-8.414
		c12.431-3,21.112-14.051,21.112-26.91C512,243.155,503.319,232.104,490.888,229.103z"/>
</g>
<g>
	<path id="SVGCleanerId_1_1_" style="fill:#F0E4C8;" d="M406.069,247.172H277.31l91.048-91.048c3.448-3.448,3.448-9.035,0-12.483
		c-3.448-3.448-9.035-3.448-12.483,0l-91.047,91.048V105.931c0-4.875-3.953-8.828-8.828-8.828s-8.828,3.953-8.828,8.828v128.758
		l-91.048-91.048c-3.448-3.448-9.035-3.448-12.483,0c-3.448,3.448-3.448,9.035,0,12.483l91.048,91.048H105.931
		c-4.875,0-8.828,3.953-8.828,8.828s3.953,8.828,8.828,8.828h128.758l-91.048,91.048c-3.448,3.448-3.448,9.035,0,12.483
		c1.725,1.725,3.982,2.586,6.241,2.586s4.518-0.862,6.241-2.586l91.049-91.049v128.759c0,4.875,3.953,8.828,8.828,8.828
		s8.828-3.953,8.828-8.828V277.31l91.048,91.048c1.725,1.725,3.982,2.586,6.241,2.586c2.259,0,4.517-0.862,6.241-2.586
		c3.448-3.448,3.448-9.035,0-12.483l-91.048-91.047h128.759c4.875,0,8.828-3.953,8.828-8.828S410.944,247.172,406.069,247.172z"/>
</g>
<circle style="fill:#FFD728;" cx="256" cy="256" r="70.621"/>
<circle style="fill:#FFBE23;" cx="256" cy="256" r="44.138"/>
<g>
</g>
<g>
</g>
<g>
</g>
<g>
</g>
<g>
</g>
<g>
</g>
<g>
</g>
<g>
</g>
<g>
</g>
<g>
</g>
<g>
</g>
<g>
</g>
<g>
</g>
<g>
</g>
<g>
</g>
</svg>
