<?xml version="1.0" encoding="iso-8859-1"?>
<!-- Generator: Adobe Illustrator 19.0.0, SVG Export Plug-In . SVG Version: 6.00 Build 0)  -->
<svg version="1.1" id="Layer_1" xmlns="http://www.w3.org/2000/svg" xmlns:xlink="http://www.w3.org/1999/xlink" x="0px" y="0px"
	 viewBox="0 0 512.001 512.001" style="enable-background:new 0 0 512.001 512.001;" xml:space="preserve">
<path style="fill:#FFBED2;" d="M282.367,307.035c-0.712-1.25-1.711-2.311-2.922-3.086l-45.069-28.897
	c-3.143-2.008-7.215-1.827-10.168,0.448l-49.785,38.553c-3.789,2.707-7.642,5.345-11.561,8.025
	c-14.548,9.956-29.594,20.258-45.384,36.5c-18.974,19.525-28.19,40.707-27.383,62.965c1.25,34.543,26.229,61.759,41.008,74.905
	c4.884,4.345,11.207,6.724,17.681,6.724c0.914,0,1.832-0.052,2.75-0.147c7.552-0.793,14.496-4.785,19.043-10.948
	c8.832-11.975,24.099-28.965,46.693-41.949C316.755,392.993,295.936,331.027,282.367,307.035z"/>
<path style="fill:#FF96AA;" d="M151.535,503.027c7.552-0.793,14.496-4.785,19.043-10.948c8.832-11.975,24.099-28.965,46.693-41.949
	c99.482-57.138,78.664-119.103,65.094-143.095c-0.712-1.25-1.711-2.311-2.922-3.086l-42.575-27.298
	c-30.766,25.86-51.394,76.453-51.394,120.591c0,44.268-17.655,114.758-54.37,99.206c4.884,4.345,11.207,6.724,17.681,6.724
	C149.699,503.173,150.617,503.122,151.535,503.027z"/>
<path style="fill:#FFBED2;" d="M444.918,430.148c-8.025-12.534-18.435-32.871-22.474-58.612
	c-14.819-94.483-69.551-120.741-115.797-113.784c-1.845,0.276-3.552,1.129-4.879,2.44l-34.207,33.655
	c-2.207,2.173-3.116,5.336-2.397,8.353l12.418,51.801c0.039,0.156,0.082,0.31,0.125,0.457c2.138,7.181,3.866,14.413,5.694,22.069
	c4.099,17.155,8.337,34.888,17.863,55.448c11.439,24.707,27.923,40.888,48.991,48.095c8.771,3.009,17.664,4.224,26.315,4.224
	c23.608,0,45.448-9.06,58.306-15.724c6.621-3.423,11.526-9.526,13.457-16.724C450.297,444.509,449.052,436.596,444.918,430.148z"/>
<path style="fill:#FF96AA;" d="M422.444,371.536c-14.819-94.483-69.551-120.741-115.797-113.784
	c-1.845,0.276-3.552,1.129-4.879,2.44l-32.876,32.345c13.067,37.845,52.338,75.176,93.154,91.22
	c39.353,15.469,95.022,54.675,75.616,82.979c5.16-3.562,9.031-8.776,10.67-14.89c1.965-7.336,0.719-15.25-3.414-21.698
	C436.893,417.613,426.483,397.277,422.444,371.536z"/>
<path style="fill:#FFBED2;" d="M478.948,156.017c-14.593,2.926-37.321,5.241-62.772-0.342
	c-93.414-20.5-137.755,20.963-148.065,66.579c-0.413,1.82-0.237,3.72,0.501,5.432l18.937,44.093c1.223,2.845,3.84,4.841,6.913,5.266
	l52.776,7.239c0.159,0.02,0.319,0.036,0.471,0.05c7.467,0.616,14.834,1.631,22.631,2.708c17.473,2.41,35.533,4.9,58.149,3.49
	c27.175-1.688,48.236-11.17,62.601-28.184c5.988-7.081,10.349-14.924,13.491-22.985c8.572-21.996,8.061-45.636,6.52-60.036
	c-0.785-7.412-4.691-14.198-10.697-18.611C494.283,156.218,486.457,154.506,478.948,156.017z"/>
<path style="fill:#FF96AA;" d="M416.177,155.674c-93.414-20.5-137.755,20.963-148.065,66.579c-0.413,1.82-0.237,3.72,0.501,5.432
	l18.201,42.377c40.007,1.567,89.049-21.469,118.818-53.674c28.703-31.051,85.445-68.685,104.772-40.325
	c-1.445-6.101-4.897-11.601-9.998-15.349c-6.122-4.495-13.948-6.208-21.457-4.697C464.355,158.943,441.628,161.258,416.177,155.674z
	"/>
<path style="fill:#FFBED2;" d="M216.167,34.01c-1.042,14.847-4.829,37.377-16.952,60.44
	c-44.504,84.652-16.264,138.389,24.994,160.409c1.645,0.879,3.523,1.214,5.37,0.954l47.533-6.585
	c3.068-0.426,5.685-2.421,6.909-5.272l20.956-48.974c0.062-0.148,0.119-0.298,0.172-0.441c2.571-7.038,5.501-13.873,8.604-21.106
	c6.951-16.211,14.135-32.968,18.764-55.149c5.568-26.652,2.002-49.472-10.601-67.83c-5.242-7.649-11.651-13.932-18.592-19.095
	c-18.942-14.091-41.872-19.858-56.167-22.185c-7.354-1.206-14.933,0.764-20.779,5.386C220.424,19.276,216.7,26.369,216.167,34.01z"
	/>
<path style="fill:#FF96AA;" d="M199.216,94.451c-44.504,84.652-16.264,138.389,24.994,160.409c1.645,0.879,3.523,1.214,5.37,0.954
	l45.684-6.329c12.105-38.164,2.879-91.555-20.295-128.79c-22.341-35.9-43.606-100.584-11.141-111.71
	c-6.266-0.222-12.483,1.651-17.449,5.577c-5.955,4.713-9.679,11.806-10.212,19.447C215.125,48.858,211.34,71.387,199.216,94.451z"/>
<path style="fill:#FFBED2;" d="M229.581,255.814c-1.847,0.259-3.726-0.075-5.372-0.954c-22.313-11.909-40.698-33.177-45.95-63.512
	c-0.786-0.542-1.545-1.053-2.34-1.602c-14.51-10.027-29.509-20.393-50.333-29.328c-25.017-10.743-48.091-11.774-68.585-3.062
	c-8.537,3.622-15.967,8.657-22.403,14.436c-17.567,15.77-27.767,37.102-32.884,50.65c-2.641,6.969-2.214,14.788,1.159,21.434
	c3.438,6.772,9.652,11.829,17.035,13.866c14.345,3.966,35.677,12.145,55.879,28.601c74.144,60.409,132.414,43.385,162.18,7.315
	c1.188-1.438,1.888-3.213,2.001-5.075l2.141-34.506L229.581,255.814z"/>
<path style="fill:#FF96AA;" d="M229.581,255.814c-1.847,0.259-3.726-0.075-5.372-0.954c-11.889-6.345-22.613-15.412-30.911-27.006
	c-27.009-3.105-56.181-0.11-80.73,9.047C72.951,251.68,5.335,259.694,0.868,225.667c-1.461,6.098-0.858,12.563,2.006,18.208
	c3.438,6.772,9.652,11.829,17.035,13.866c14.345,3.966,35.677,12.145,55.879,28.601c74.144,60.409,132.414,43.385,162.18,7.315
	c1.188-1.438,1.888-3.213,2.001-5.075l2.141-34.506L229.581,255.814z"/>
<path style="fill:#FFD7E9;" d="M361.28,235.415c-23.182-7.037-45.355-6.551-66.051,1.277c11.69-14.146,32.08-28.711,51.742-32.13
	c4.802-0.836,8.022-5.405,7.186-10.216c-0.836-4.793-5.379-8-10.211-7.181c-27.879,4.853-54.214,25.775-67.032,44.584
	c-3.262-1.184-6.725-1.896-10.354-2.066c-0.999-23.664-0.332-34.563,17.511-53.708c3.324-3.561,3.129-9.146-0.436-12.474
	c-3.564-3.319-9.155-3.147-12.479,0.439c-21.007,22.536-23.129,38.292-22.42,61.565c-12.871-17.743-17.253-36.512-13.214-57.195
	c0.936-4.785-2.185-9.422-6.969-10.354c-4.836-0.948-9.422,2.189-10.358,6.974c-5.474,28.007,1.265,53.033,20.481,76.479
	c-2.321,2.599-4.286,5.501-5.761,8.703c-19.033-0.551-45.262-11.847-62.935-24.716c-3.932-2.854-9.457-1.992-12.332,1.94
	c-2.867,3.948-2.001,9.465,1.944,12.337c17.973,13.086,43.239,24.65,65.236,27.495c-16.968,7.562-41.069,10.722-59.515,9.583
	c-4.897-0.207-9.043,3.414-9.336,8.285c-0.294,4.862,3.418,9.043,8.285,9.336c2.797,0.172,5.711,0.25,8.715,0.25
	c19.903,0,43.482-3.789,61.396-12.394c2.007,3.517,4.57,6.621,7.618,9.247c-0.11,0.179-0.286,0.286-0.385,0.474
	c-9.457,18.035-28.737,36.069-43.651,45.931c-4.065,2.69-5.181,8.163-2.492,12.233c1.698,2.569,4.509,3.957,7.371,3.957
	c1.673,0,3.362-0.474,4.862-1.465c18.634-12.326,36.313-30.45,46.602-47.401c0.728,20.941-2.422,40.775-8.942,55.28
	c-2.001,4.448-0.013,9.673,4.431,11.672c1.176,0.526,2.406,0.776,3.616,0.776c3.367,0,6.586-1.94,8.056-5.207
	c10.904-24.266,11.25-52.078,10.238-68.269c5.005-0.974,9.599-3.027,13.607-5.874c9.783,14.495,21.012,35.585,21.746,57.065
	c0.163,4.767,4.082,8.526,8.819,8.526c0.099,0,0.203,0,0.306-0.009c4.871-0.163,8.685-4.25,8.522-9.121
	c-0.846-24.738-12.779-48.167-23.593-64.569c18.786,4.724,33.507,22.972,44.404,38.974c1.711,2.508,4.483,3.862,7.306,3.862
	c1.711,0,3.439-0.491,4.961-1.535c4.03-2.741,5.069-8.233,2.327-12.258c-13.656-20.056-32.812-43.212-60.111-47.258
	c0.056-0.819,0.245-1.598,0.245-2.431c0-3.645-0.712-7.092-1.737-10.4c17.832-7.554,37.209-8.329,57.655-2.118
	c4.681,1.422,9.603-1.216,11.012-5.888C368.578,241.76,365.944,236.828,361.28,235.415z"/>
<circle style="fill:#FFDA90;" cx="264.927" cy="264.828" r="35.31"/>
<circle style="fill:#FFEB78;" cx="264.927" cy="264.828" r="17.655"/>
<g>
</g>
<g>
</g>
<g>
</g>
<g>
</g>
<g>
</g>
<g>
</g>
<g>
</g>
<g>
</g>
<g>
</g>
<g>
</g>
<g>
</g>
<g>
</g>
<g>
</g>
<g>
</g>
<g>
</g>
</svg>
