<?xml version="1.0" standalone="no"?>
<!DOCTYPE svg PUBLIC "-//W3C//DTD SVG 20010904//EN"
 "http://www.w3.org/TR/2001/REC-SVG-20010904/DTD/svg10.dtd">
<svg version="1.0" xmlns="http://www.w3.org/2000/svg"
 width="1633.000000pt" height="1633.000000pt" viewBox="0 0 1633.000000 1633.000000"
 preserveAspectRatio="xMidYMid meet">
<metadata>
Created by potrace 1.11, written by Peter Selinger 2001-2013
</metadata>
<g transform="translate(0.000000,1633.000000) scale(0.100000,-0.100000)"
fill="#000000" stroke="none">
<path d="M12277 13844 c-1 -1 -31 -5 -67 -8 -36 -2 -95 -11 -132 -19 -37 -8
-70 -12 -73 -9 -3 3 -5 1 -5 -5 0 -5 -6 -10 -12 -10 -16 0 -126 -31 -153 -43
-11 -4 -55 -20 -98 -34 -42 -14 -85 -30 -95 -35 -9 -5 -35 -17 -57 -26 -121
-50 -231 -122 -318 -208 -115 -114 -168 -209 -215 -387 -9 -37 -11 -241 -2
-305 13 -88 18 -126 25 -195 4 -30 8 -66 10 -80 2 -14 6 -50 9 -80 3 -30 8
-72 11 -93 3 -20 7 -61 10 -90 3 -28 7 -63 10 -77 2 -14 6 -52 10 -85 3 -33 8
-71 10 -85 2 -14 6 -56 10 -93 3 -37 8 -78 10 -89 3 -12 7 -49 10 -82 3 -34 8
-79 11 -101 3 -22 7 -60 9 -85 2 -25 4 -45 5 -45 1 0 3 -13 4 -30 11 -110 17
-173 21 -195 2 -14 7 -52 10 -85 4 -33 8 -73 10 -90 2 -16 7 -57 9 -90 3 -33
8 -76 11 -95 3 -19 7 -60 10 -90 8 -96 23 -234 31 -280 3 -20 7 -60 9 -90 2
-30 6 -73 9 -95 3 -22 8 -69 11 -105 16 -160 24 -241 30 -280 2 -14 7 -59 10
-100 3 -41 8 -86 10 -100 2 -14 7 -59 10 -100 3 -41 8 -86 10 -100 2 -14 7
-59 10 -100 4 -41 9 -88 11 -105 3 -30 12 -365 19 -735 5 -254 5 -995 0 -1130
-8 -223 -18 -413 -30 -545 -3 -27 -7 -81 -10 -120 -3 -38 -10 -106 -16 -150
-5 -44 -12 -98 -15 -120 -2 -22 -7 -58 -10 -80 -2 -22 -7 -51 -9 -65 -3 -14
-7 -40 -10 -57 -11 -72 -16 -101 -27 -158 -6 -33 -12 -69 -14 -80 -1 -11 -3
-20 -4 -20 -1 0 -3 -11 -6 -25 -2 -14 -11 -56 -20 -95 -15 -68 -18 -82 -29
-127 -3 -13 -8 -34 -10 -48 -2 -14 -15 -62 -28 -107 -14 -45 -22 -85 -19 -88
3 -3 -1 -5 -8 -5 -7 0 -11 -3 -7 -6 3 -3 1 -18 -5 -33 -5 -14 -11 -33 -13 -41
-13 -61 -127 -375 -172 -470 -64 -137 -128 -266 -136 -271 -5 -3 -9 -12 -10
-20 -2 -8 -13 -29 -25 -46 -12 -17 -22 -34 -22 -37 0 -5 -61 -102 -82 -131
-84 -113 -160 -209 -193 -244 -76 -82 -137 -141 -145 -141 -5 0 -15 -8 -22
-17 -24 -32 -166 -126 -266 -177 -65 -33 -225 -92 -274 -101 -11 -2 -27 -6
-36 -9 -67 -20 -269 -28 -347 -13 -129 25 -259 99 -369 211 -82 84 -117 126
-108 126 4 0 2 4 -4 8 -36 25 -163 258 -224 410 -35 89 -88 238 -95 267 -1 6
-5 17 -8 25 -3 8 -16 53 -27 100 -12 47 -24 92 -27 100 -7 18 -13 39 -17 65
-2 11 -9 43 -16 70 -6 28 -13 57 -15 65 -11 53 -65 320 -70 345 -2 17 -9 55
-15 85 -5 30 -12 73 -15 95 -4 22 -8 47 -10 55 -2 8 -7 38 -10 65 -3 28 -8 61
-10 75 -2 14 -7 45 -10 70 -4 25 -8 56 -10 70 -8 47 -28 228 -40 350 -3 30 -7
75 -10 100 -10 98 -22 242 -30 385 -3 50 -7 117 -10 150 -3 33 -7 119 -11 190
-3 72 -7 168 -9 215 -5 110 -16 397 -20 525 -12 363 -18 1068 -20 2355 -1 811
-5 1494 -9 1517 -32 213 -162 358 -363 408 -32 7 -74 16 -93 19 -41 7 -254 8
-290 2 -14 -3 -47 -7 -75 -11 -81 -10 -119 -16 -137 -21 -10 -3 -30 -8 -45
-10 -56 -10 -160 -42 -235 -72 -291 -117 -470 -350 -573 -747 -26 -103 -62
-293 -70 -375 -3 -30 -7 -73 -10 -95 -3 -22 -7 -60 -9 -85 -3 -25 -7 -76 -11
-115 -4 -38 -8 -90 -11 -115 -2 -25 -6 -67 -9 -95 -3 -27 -8 -77 -11 -110 -3
-33 -7 -73 -9 -90 -2 -16 -6 -59 -9 -95 -3 -36 -8 -74 -10 -85 -2 -11 -7 -49
-11 -85 -4 -36 -9 -78 -11 -95 -2 -16 -6 -52 -8 -80 -3 -27 -8 -61 -11 -75 -2
-14 -7 -50 -10 -80 -3 -30 -7 -66 -10 -80 -3 -14 -7 -43 -10 -65 -3 -22 -7
-56 -10 -75 -3 -19 -7 -51 -10 -70 -7 -54 -15 -112 -20 -140 -3 -14 -7 -47
-10 -75 -4 -27 -8 -57 -10 -65 -2 -8 -7 -37 -11 -65 -3 -27 -8 -59 -10 -70 -2
-11 -6 -33 -9 -50 -3 -16 -7 -43 -10 -60 -3 -16 -8 -46 -11 -65 -3 -19 -19
-109 -35 -200 -17 -91 -33 -178 -36 -195 -2 -16 -25 -129 -50 -250 -24 -121
-47 -231 -49 -245 -3 -14 -16 -74 -30 -135 -14 -60 -28 -119 -30 -130 -7 -30
-13 -58 -18 -80 -2 -11 -9 -40 -16 -65 -7 -25 -14 -53 -16 -62 -6 -26 -11 -48
-23 -98 -7 -25 -14 -56 -17 -69 -3 -14 -7 -28 -10 -33 -3 -5 -7 -21 -10 -36
-2 -15 -13 -61 -24 -102 -11 -41 -23 -82 -25 -90 -34 -124 -80 -285 -105 -365
-18 -55 -40 -127 -50 -160 -10 -33 -46 -145 -80 -250 -35 -104 -62 -191 -62
-192 1 -2 -10 -28 -23 -58 -14 -31 -25 -60 -25 -65 0 -5 -5 -21 -12 -37 -6
-15 -12 -30 -13 -33 -1 -3 -5 -14 -10 -25 -4 -11 -21 -54 -37 -95 -16 -41 -33
-84 -38 -95 -5 -11 -27 -65 -50 -120 -41 -96 -56 -131 -106 -242 -13 -28 -24
-57 -24 -62 0 -6 -4 -11 -10 -11 -5 0 -10 -5 -10 -10 0 -13 -113 -245 -166
-340 -20 -36 -52 -94 -71 -130 -191 -348 -457 -705 -677 -909 -21 -20 -51 -48
-67 -62 -15 -14 -51 -43 -78 -65 -28 -21 -51 -42 -51 -47 0 -4 -4 -6 -9 -2 -6
3 -13 -1 -18 -8 -4 -7 -23 -22 -41 -32 -17 -11 -32 -22 -32 -26 0 -4 -8 -9
-18 -13 -17 -5 -52 -26 -62 -36 -32 -32 -296 -148 -373 -164 -12 -3 -33 -8
-47 -11 -138 -33 -367 -38 -488 -10 -12 3 -30 7 -41 9 -10 3 -53 18 -96 35
-259 104 -479 351 -620 696 -42 102 -105 320 -120 415 -3 19 -8 42 -10 50 -5
18 -15 84 -20 125 -1 17 -6 50 -9 75 -24 173 -31 293 -31 565 0 252 8 413 30
595 16 136 18 156 30 233 3 17 7 50 10 72 2 22 6 50 9 61 2 12 7 37 10 55 3
19 8 45 11 59 3 14 7 39 10 55 2 17 7 41 10 55 3 14 7 39 10 55 7 42 17 90 30
148 3 12 7 36 10 52 3 17 12 57 20 90 8 33 17 76 20 95 3 19 12 60 20 90 8 30
17 70 20 89 3 19 8 37 10 41 2 4 7 22 10 40 6 32 127 511 161 635 9 33 18 68
19 78 2 9 6 21 9 25 3 5 7 19 10 33 3 13 8 35 11 49 4 14 8 32 10 40 1 8 5 22
8 30 6 15 65 226 72 257 2 10 11 43 20 73 9 30 17 62 19 70 2 8 12 42 22 75
10 33 19 65 20 70 7 29 101 348 189 640 13 44 33 114 45 155 11 41 28 99 36
127 9 29 17 58 18 65 2 13 30 109 46 158 7 21 17 58 25 95 2 6 11 37 21 70 10
33 19 65 20 70 1 6 29 107 62 225 64 228 151 561 156 595 1 12 5 26 9 31 3 6
9 26 12 45 3 19 8 41 10 49 2 8 7 26 9 40 3 14 10 45 17 70 10 42 15 64 24
118 2 12 6 30 9 40 3 9 8 33 10 52 3 19 7 44 9 55 5 20 17 100 23 145 9 63 10
297 2 339 -5 25 -10 59 -12 74 -9 71 -51 152 -111 212 -52 52 -71 64 -130 83
-39 12 -101 26 -139 30 -72 9 -326 8 -411 -2 -27 -3 -74 -8 -104 -12 -73 -8
-171 -38 -251 -77 -36 -17 -67 -34 -70 -37 -3 -3 -25 -18 -50 -34 -77 -50
-201 -173 -271 -268 -22 -29 -45 -60 -52 -68 -10 -12 -74 -119 -127 -210 -59
-101 -276 -571 -284 -615 -1 -5 -8 -20 -14 -32 -7 -13 -9 -23 -5 -23 4 0 3 -4
-3 -8 -5 -4 -21 -36 -34 -72 -13 -36 -28 -74 -34 -85 -5 -11 -11 -25 -12 -30
-1 -6 -11 -31 -22 -55 -11 -25 -25 -63 -32 -85 -7 -22 -16 -44 -19 -50 -4 -5
-20 -44 -35 -85 -15 -41 -34 -91 -41 -110 -66 -171 -204 -560 -211 -597 -2
-12 -13 -42 -24 -67 -10 -25 -17 -46 -15 -46 2 0 -7 -30 -21 -67 -14 -38 -25
-69 -24 -71 0 -1 -17 -60 -39 -130 -67 -214 -137 -459 -181 -632 -23 -91 -45
-172 -48 -180 -7 -19 -6 -17 -17 -65 -4 -22 -9 -44 -11 -50 -2 -5 -5 -20 -8
-33 -3 -13 -7 -31 -10 -40 -6 -18 -16 -65 -21 -97 -2 -11 -4 -22 -6 -25 -1 -3
-3 -9 -4 -15 -2 -5 -4 -12 -5 -15 -3 -10 -11 -45 -14 -65 -2 -11 -6 -31 -9
-45 -4 -14 -9 -36 -11 -50 -2 -14 -10 -47 -16 -75 -6 -27 -13 -59 -15 -70 -6
-32 -15 -78 -21 -105 -8 -33 -11 -51 -18 -91 -3 -19 -8 -44 -10 -56 -3 -11 -8
-43 -12 -70 -5 -26 -9 -50 -9 -53 -3 -10 -15 -75 -20 -105 -17 -102 -55 -347
-59 -385 -3 -25 -8 -58 -10 -75 -2 -16 -7 -59 -11 -95 -4 -36 -8 -67 -10 -70
-2 -3 -6 -43 -10 -90 -3 -47 -8 -96 -10 -110 -1 -14 -6 -65 -10 -115 -4 -49
-8 -106 -10 -125 -26 -267 -26 -1018 0 -1285 2 -22 7 -69 10 -105 7 -74 33
-280 40 -325 3 -16 10 -57 16 -90 16 -98 48 -241 85 -390 20 -77 37 -147 39
-155 2 -8 22 -71 45 -140 23 -69 42 -131 43 -137 0 -7 5 -13 10 -13 6 0 8 -3
4 -6 -3 -4 1 -23 9 -43 9 -20 17 -40 18 -46 9 -34 83 -200 143 -319 51 -101
168 -304 183 -316 3 -3 16 -22 29 -42 12 -21 27 -38 32 -38 5 0 8 -4 6 -8 -2
-8 22 -41 65 -93 9 -11 31 -39 50 -62 45 -57 227 -238 275 -273 21 -16 43 -34
48 -40 9 -10 159 -114 220 -151 42 -26 198 -104 248 -124 29 -12 63 -26 77
-32 14 -5 31 -12 38 -14 32 -9 38 -10 52 -15 61 -21 168 -46 265 -63 74 -13
182 -19 330 -19 147 0 404 11 446 19 10 2 50 7 90 10 40 4 80 8 88 10 9 1 41
6 71 10 30 4 64 9 75 11 11 3 34 6 50 8 54 8 99 17 139 27 21 6 40 8 43 5 3
-3 13 -1 23 4 9 5 30 12 46 14 16 3 44 10 62 15 17 5 32 7 32 4 0 -3 7 0 15 7
8 7 15 10 15 7 0 -3 12 -2 27 3 67 21 175 52 188 54 8 1 18 5 21 9 4 4 13 7
20 7 7 0 25 5 41 12 15 6 33 12 38 13 6 2 53 20 105 40 159 63 397 183 504
254 21 14 48 31 60 38 38 22 218 154 242 177 6 6 35 31 65 56 61 52 241 229
313 310 119 134 347 456 406 575 8 17 18 32 21 35 11 8 143 269 188 370 24 52
49 109 56 125 40 87 104 259 100 266 -3 4 -2 9 3 11 7 3 57 137 67 178 2 8 11
37 20 64 9 26 18 56 20 65 4 14 41 144 52 181 2 8 4 16 4 17 0 2 6 21 14 43 8
22 12 40 10 40 -2 0 2 18 10 40 8 22 14 43 14 45 -1 8 13 68 32 145 15 63 15
64 38 174 22 102 66 339 76 411 4 22 13 81 21 130 7 50 16 110 19 135 9 74 15
124 20 150 2 14 7 52 10 85 3 33 8 74 10 90 2 17 7 62 10 100 3 39 8 79 10 90
2 11 4 28 4 38 1 9 5 17 10 17 5 0 9 -108 8 -252 -1 -226 6 -417 18 -488 2
-14 7 -54 10 -90 13 -126 14 -133 40 -305 4 -22 8 -53 10 -70 4 -29 8 -52 21
-125 4 -19 8 -42 9 -50 6 -35 16 -87 24 -117 5 -17 7 -34 4 -37 -3 -3 -1 -12
5 -19 7 -8 10 -16 7 -18 -2 -3 0 -23 6 -45 6 -21 13 -48 15 -59 3 -19 16 -76
27 -120 3 -11 14 -56 25 -100 45 -180 152 -504 223 -670 7 -16 13 -32 14 -35
2 -5 25 -57 70 -155 15 -33 33 -63 39 -67 6 -4 8 -8 4 -8 -14 0 196 -359 222
-380 4 -3 20 -25 37 -50 17 -25 39 -55 49 -67 11 -12 30 -37 44 -54 91 -119
277 -297 395 -379 28 -19 55 -40 60 -46 21 -23 198 -126 317 -183 110 -54 295
-123 359 -134 13 -3 42 -9 64 -15 22 -6 56 -13 75 -16 19 -2 46 -7 60 -10 84
-19 477 -28 605 -13 33 4 78 9 100 11 61 6 150 21 165 26 3 1 9 2 13 1 5 -1
27 4 50 10 23 6 53 12 67 14 76 10 440 114 505 145 11 6 49 21 85 34 36 13 92
36 125 52 33 15 62 28 65 29 34 11 150 71 150 77 0 4 7 8 15 8 9 0 32 10 53
23 20 12 48 28 62 35 14 7 43 23 65 36 22 14 55 32 73 41 17 10 32 21 32 26 0
5 5 9 10 9 12 0 134 81 138 92 2 5 9 8 15 8 7 0 24 11 39 25 15 14 31 25 35
25 4 0 23 14 42 30 18 17 36 30 40 30 3 0 20 13 37 28 17 15 49 41 70 57 95
75 424 385 424 400 0 2 19 24 43 49 67 71 90 98 127 145 19 25 42 52 50 61 9
8 42 51 75 95 33 44 62 82 65 85 15 12 220 328 220 339 0 6 5 11 10 11 6 0 10
7 10 15 0 8 5 15 10 15 6 0 10 4 10 9 0 5 19 42 43 83 24 40 67 118 96 173 29
55 58 106 63 113 6 6 7 12 3 12 -5 0 -1 8 7 18 8 9 18 29 22 45 3 15 11 27 16
27 6 0 10 5 10 11 0 6 14 41 31 77 31 67 110 251 122 285 6 15 9 16 21 5 8 -7
13 -14 11 -16 -4 -4 54 -115 88 -172 34 -57 95 -133 162 -204 39 -42 142 -126
153 -126 7 0 12 -4 12 -8 0 -18 189 -103 284 -128 119 -31 177 -38 316 -38 96
0 136 3 255 20 63 9 277 65 308 81 15 7 27 11 27 9 0 -8 133 49 248 106 56 28
102 55 102 59 0 5 3 8 8 7 13 -4 52 13 52 23 0 5 5 9 10 9 19 0 297 197 346
244 6 6 37 34 69 61 106 91 264 248 259 257 -3 5 -2 7 3 6 8 -3 73 57 73 67 0
2 10 15 23 27 38 40 123 140 162 192 21 28 42 55 47 60 21 25 121 164 141 196
11 19 23 37 26 40 13 12 51 70 51 78 0 5 11 22 25 38 13 15 22 30 20 32 -2 2
5 14 16 25 33 36 33 60 0 126 -17 34 -30 64 -30 66 0 3 -15 38 -34 78 -18 39
-42 93 -53 119 -10 27 -23 48 -27 48 -5 0 -6 4 -2 9 3 5 1 12 -5 16 -5 3 -10
15 -10 26 0 10 -4 19 -10 19 -5 0 -10 7 -10 15 0 8 -4 23 -10 33 -20 36 -200
436 -200 445 0 6 -7 18 -15 27 -9 10 -17 26 -20 38 -4 21 -43 101 -45 92 -3
-13 -9 -42 -14 -77 -3 -21 -8 -49 -11 -63 -3 -14 -7 -36 -10 -50 -3 -14 -14
-56 -25 -95 -28 -95 -27 -93 -57 -170 -8 -22 -21 -55 -27 -73 -7 -18 -18 -38
-24 -44 -7 -7 -12 -17 -12 -24 0 -6 -18 -44 -40 -84 -22 -40 -40 -76 -40 -81
0 -4 -3 -9 -8 -11 -4 -1 -23 -28 -42 -58 -19 -30 -37 -57 -40 -60 -3 -3 -28
-34 -55 -70 -69 -91 -246 -266 -317 -312 -14 -9 -33 -24 -42 -33 -9 -9 -16
-13 -16 -8 0 4 -4 3 -8 -3 -17 -25 -181 -109 -286 -145 -33 -12 -68 -24 -76
-27 -8 -3 -19 -6 -25 -6 -5 -1 -35 -7 -65 -13 -121 -26 -254 -33 -380 -20 -91
10 -216 50 -271 88 -14 10 -29 16 -33 12 -3 -3 -6 -2 -6 3 0 5 -14 18 -32 29
-48 28 -92 68 -174 156 -77 84 -161 233 -209 374 -15 44 -29 87 -33 95 -7 21
-7 20 -16 68 -27 146 -37 523 -22 777 12 186 14 211 21 278 4 34 9 82 11 107
3 25 7 56 9 70 3 23 7 51 21 175 2 22 7 56 10 75 36 249 36 591 -1 880 -6 50
-24 164 -30 195 -8 40 -35 171 -40 195 -4 23 -21 113 -31 168 -2 12 -6 34 -9
50 -3 15 -7 47 -10 72 -3 25 -8 52 -10 60 -2 8 -7 40 -10 70 -9 91 -15 134
-19 155 -2 11 -7 61 -11 110 -3 50 -8 108 -11 130 -4 44 -13 207 -19 380 -10
304 -24 543 -40 720 -3 28 -8 77 -10 110 -3 33 -8 80 -10 105 -3 25 -7 68 -10
95 -35 384 -108 808 -205 1180 -93 358 -132 448 -248 569 -24 25 -99 79 -112
81 -3 0 -15 6 -27 13 -13 7 -23 9 -23 5 0 -4 -4 -3 -8 4 -4 6 -21 15 -37 18
-33 7 -185 22 -188 19z"/>
</g>
</svg>
