<?xml version="1.0" encoding="iso-8859-1"?>
<!-- Generator: Adobe Illustrator 19.0.0, SVG Export Plug-In . SVG Version: 6.00 Build 0)  -->
<svg version="1.1" id="Layer_1" xmlns="http://www.w3.org/2000/svg" xmlns:xlink="http://www.w3.org/1999/xlink" x="0px" y="0px"
	 viewBox="0 0 511.997 511.997" style="enable-background:new 0 0 511.997 511.997;" xml:space="preserve">
<g>
	<path style="fill:#FAF0D4;" d="M372.14,8.504c-40.87-14.466-104.69-3-121.936,21.921c-2.439,3.529-1.996,8.296,1.06,11.308
		c5.538,5.464,54.952,53.367,84.204,53.367c27.261,0,80.196-13.286,82.438-13.851c3.133-0.793,5.581-3.228,6.386-6.352
		C424.404,74.46,434.897,30.737,372.14,8.504z"/>
	<path style="fill:#FAF0D4;" d="M488.04,290.933c-1.965-2.672-5.253-4.033-8.532-3.49c-2.943,0.483-72.177,12.316-82.088,61.865
		c-9.092,45.446,0.018,86.729,0.409,88.462c0.805,3.551,3.71,6.248,7.317,6.782c5.111,0.759,10.175,1.129,15.16,1.129
		c20.081,0,38.827-6.076,53.905-17.685c19.138-14.73,30.932-37.44,34.104-65.683C512.529,324.796,489.039,292.295,488.04,290.933z"
		/>
</g>
<g>
	<path style="fill:#FFF5DC;" d="M203.016,182.261c-8.735-69.871-54.418-118.975-59.873-124.621
		c-8.516-10.971-30.346-12.074-46.687-9.619C80.611,50.395,27.33,63.022,6.982,125.838c-21.357,65.92,12.096,125.492,22.857,142.186
		c10.872,16.867,27.2,35.414,40.413,36.905c0.603,0.061,1.259,0.095,1.978,0.095c18.039,0,71.479-21.34,103.053-53.298
		C196.733,230.017,206.063,206.643,203.016,182.261z"/>
	<path style="fill:#FFF5DC;" d="M228.807,415.171c-2.767-11.739-28.368-115.292-75.396-134.106l-4.754-1.905
		c-45.859-18.375-93.267-37.405-113.102-4.37c-14.988,24.985-16.53,58.814-4.344,95.27c16.509,49.368,55.444,96.133,92.582,111.18
		c9.597,3.887,18.978,5.835,28.093,5.835c9.804,0,19.297-2.249,28.394-6.757c30.079-14.893,45.441-49.764,48.45-60.804
		C229.117,418.101,229.144,416.602,228.807,415.171z"/>
</g>
<path style="fill:#FFFAEB;" d="M436.595,342.309c-9.648-28.287-31.936-51.135-46.696-54.728l-0.495-0.12
	c-10.493-2.552-11.975-2.543-22.715,0.224c-7.338,1.879-21.004,5.387-50.394,10.532c-50.398,8.834-115.206,66.614-130.843,116.653
	c-7.085,22.667-3.646,41.749,9.942,55.168c38.215,37.741,139.096,39.81,160.695,39.81c2.138,0,3.499-0.018,3.947-0.025
	c3.482-0.061,6.606-2.181,7.973-5.387c0.12-0.285,12.716-29.338,54.63-81.722C446.614,392.737,443.459,362.442,436.595,342.309z"/>
<path style="fill:#FFF5DC;" d="M504.118,176.874c-18.151-10.998-34.268-39.292-44.933-58.017
	c-3.146-5.529-5.869-10.291-8.106-13.729c-21.404-32.932-43.787-50.837-66.528-53.224c-21.021-2.211-35.117,9.442-40.219,14.548
	c-0.999,0.999-1.745,2.224-2.172,3.568c-25.554,80.476-16.057,89.979-13.26,92.737c1.991,2.749,7.02,17.393,11.459,30.303
	c13.6,39.577,36.362,105.811,68.298,137.743l19.611,19.616c1.724,1.724,3.981,2.586,6.24,2.586c2.258,0,4.516-0.862,6.24-2.586
	c0.298-0.301,0.569-0.612,0.814-0.94c40.327-16.944,63.756-89.211,69.182-132.468C514.477,187.259,509.164,179.934,504.118,176.874z
	"/>
<path style="fill:#FFFAEB;" d="M358.703,79.285c-12.144-22.025-36.952-36.966-71.75-43.214
	C254.866,30.313,177.905,5.324,177.134,5.074c-2.288-0.746-4.775-0.517-6.895,0.608c-2.12,1.133-3.685,3.086-4.336,5.4
	c-0.043,0.156-4.727,15.966-16.862,27.2c-65.101,60.296-52.306,109.1-46.842,129.939l0.759,2.93
	c0.991,3.965,4.546,6.689,8.559,6.689c0.267,0,0.534-0.009,0.805-0.034l239.051-21.831c3.288-0.301,6.137-2.414,7.378-5.473
	C369.628,123.697,369.61,99.069,358.703,79.285z"/>
<path style="fill:#F8EBC8;" d="M323.272,380.913c-0.108-0.94-0.366-1.845-0.759-2.697c-0.633-1.361-16.014-33.665-61.934-61.218
	C211.69,287.65,143.047,342.81,140.151,345.18c-2.482,2.025-3.671,5.231-3.111,8.386c9.273,52.177,50.294,61.218,86.484,69.2
	c4.46,0.983,8.895,1.956,13.234,3.008c16.401,3.981,26.49,9.334,29.98,15.901c0.728,1.37,2.939,5.541,8.183,5.801
	c0.116,0.009,0.233,0.009,0.349,0.009c3.012,0,6.309-1.905,7.968-4.395c3.396-5.093,8.839-10.239,14.604-15.695
	C310.866,415.076,325.625,401.123,323.272,380.913z"/>
<path style="fill:#FAF0D4;" d="M157.794,144.976c-1.59-1.25-3.693-1.874-5.581-1.888c-1.853,0.025-45.575,1.176-61.395,47.808
	C73.016,243.367,65.118,318.841,64.79,322.02c-0.341,3.292,1.194,6.499,3.969,8.308c0.509,0.328,12.829,8.231,45.938,20.651
	c10.967,4.112,22.973,5.921,34.845,5.921c31.734,0,62.45-12.937,69.475-29.338c0.199-0.457,0.353-0.922,0.466-1.388
	c0.5-1,0.819-2.112,0.905-3.301C229.122,202.523,160.712,147.269,157.794,144.976z"/>
<path style="fill:#F8EBC8;" d="M235.345,117.832c-0.909-1.948-2.5-3.49-4.469-4.348c-52.065-22.663-87.966,36.604-103.299,61.908
	c-1.827,3.016-3.378,5.577-4.637,7.464c-3.215,4.809-1.646,9.506,4.671,13.962c6.886,4.861,27.838,19.642,38.345,38.465
	c13.376,23.969,27.006,36.819,41.671,39.301c1.487,0.25,3.146,0.414,4.947,0.414c6.343,0,14.432-2.034,22.814-9.49
	c0.905-0.802,1.637-1.784,2.146-2.878C238.87,259.751,269.793,191.31,235.345,117.832z"/>
<path style="fill:#FAF0D4;" d="M368.326,163.24c-0.767-2.525-8.67-25.369-50.311-51.466c-46.442-29.105-80.162-20.043-81.58-19.642
	c-2.866,0.814-5.141,3.047-6.029,5.891c-0.043,0.133-4.49,14.104-27.515,64.089c-5.425,11.773-3.87,24.469,4.383,35.741
	c10.277,14.048,29.347,23.572,46.144,23.572c1.741,0,3.461-0.104,5.136-0.31c0.884-0.113,1.745-0.353,2.559-0.724l102.42-46.558
	C367.56,172.004,369.61,167.471,368.326,163.24z"/>
<path style="fill:#F8EBC8;" d="M376.35,160.637c-2.387-3.31-6.775-4.555-10.553-2.982c-0.211,0.086-21.408,8.636-61.783,8.636
	c-20.384,0-35.638,5.498-45.334,16.333c-11.062,12.359-10.446,26.632-9.989,30.708c0.151,1.361,0.617,2.672,1.361,3.827
	c1.043,1.603,26.718,39.732,134.813,78.007c0.961,0.345,1.956,0.509,2.948,0.509c2.034,0,4.042-0.707,5.649-2.043
	c0.892-0.741,21.801-18.47,21.801-44.033C415.264,214.951,377.936,162.835,376.35,160.637z"/>
<path style="fill:#F5E1B9;" d="M385.076,263.354c-8.115-13.527-20.273-21.747-32.797-22.445c3.838,5.413,6.362,11.108,7.057,16.964
	c5.046,42.498-25.3,71.949-47.459,93.461c-9.352,9.072-18.175,17.679-21.144,24.229c4.092,2.012,8.233,4.885,12.844,8.098
	c11.993,8.351,26.924,18.745,51.178,20.314c0.194,0.009,0.384,0.018,0.577,0.018c4.413,0,8.188-3.284,8.748-7.722
	c0.043-0.345,4.555-34.931,22.21-68.027C399.379,303.706,394.242,278.635,385.076,263.354z"/>
<path style="fill:#EBD7B4;" d="M359.336,257.872c-2.141-18.022-20.111-34.836-48.075-44.98
	c-18.724-6.777-43.897-10.702-60.668-3.057c-3.001,30.381-12.338,51.236-13.061,52.795c-0.509,1.094-1.241,2.077-2.146,2.878
	c-1.615,1.436-3.212,2.616-4.794,3.674c0,0-18.653,51.391-19.01,53.054c-2.021,9.454-0.07,38.482,34.298,47.627
	c13.264,3.525,23.142,7.584,29.347,12.058c0.97,0.698,3.158,2.276,6.133,2.276c0.918,0,1.909-0.147,2.964-0.517
	c2.733-0.974,4.852-3.275,5.606-6.068c1.818-6.739,11.597-16.238,21.948-26.278C334.037,329.821,364.384,300.371,359.336,257.872z"
	/>
<path style="fill:#F5E1B9;" d="M244.076,244.184c-3.13,10.843-6.144,17.59-6.541,18.446c-0.509,1.094-1.241,2.077-2.146,2.878
	c-8.382,7.455-16.471,9.49-22.814,9.49c-1.801,0-3.461-0.163-4.947-0.414c-14.665-2.482-28.295-15.332-41.671-39.301
	c-2.951-5.286-6.753-10.204-10.808-14.723c-6.026,13.238-11.281,38.165-3.667,61.436c5.955,18.185,18.406,31.898,37.004,40.757
	c15.996,7.61,32.854,10.833,48.601,10.833c20.47,0,39.055-5.448,51.406-13.756c10.2-6.87,15.022-15.447,15.022-24.193
	C303.514,289.261,299.614,255.062,244.076,244.184z"/>
<path style="fill:#DCC39B;" d="M248.994,222.107l-4.918,22.077c37.8,7.403,51.657,25.598,56.667,38.484
	C317.982,262.914,315.923,206.186,248.994,222.107z"/>
<g>
</g>
<g>
</g>
<g>
</g>
<g>
</g>
<g>
</g>
<g>
</g>
<g>
</g>
<g>
</g>
<g>
</g>
<g>
</g>
<g>
</g>
<g>
</g>
<g>
</g>
<g>
</g>
<g>
</g>
</svg>
