<?xml version="1.0" encoding="iso-8859-1"?>
<!-- Generator: Adobe Illustrator 19.0.0, SVG Export Plug-In . SVG Version: 6.00 Build 0)  -->
<svg version="1.1" id="Layer_1" xmlns="http://www.w3.org/2000/svg" xmlns:xlink="http://www.w3.org/1999/xlink" x="0px" y="0px"
	 viewBox="0 0 512.001 512.001" style="enable-background:new 0 0 512.001 512.001;" xml:space="preserve">
<circle style="fill:#F5BE3C;" cx="255.999" cy="255.999" r="123.586"/>
<circle style="fill:#D2A53C;" cx="255.999" cy="255.999" r="88.275"/>
<circle style="fill:#C3BC41;" cx="255.999" cy="255.999" r="52.965"/>
<g>
	<path style="fill:#FFE650;" d="M256,167.726c-2.185,0-4.371-0.806-6.078-2.422c-18.306-17.37-29.232-47.814-29.232-81.44
		s10.926-64.068,29.232-81.44c3.414-3.233,8.741-3.233,12.156,0c18.306,17.37,29.232,47.814,29.232,81.44
		s-10.926,64.068-29.232,81.44C260.371,166.92,258.185,167.726,256,167.726z"/>
	<path style="fill:#FFE650;" d="M256,512.001c-2.185,0-4.371-0.806-6.078-2.422c-18.306-17.37-29.232-47.814-29.232-81.44
		s10.926-64.069,29.232-81.44c3.414-3.233,8.741-3.233,12.156,0c18.306,17.37,29.232,47.814,29.232,81.44
		s-10.926,64.069-29.232,81.44C260.371,511.194,258.185,512.001,256,512.001z"/>
	<path style="fill:#FFE650;" d="M83.863,291.312c-33.625,0-64.068-10.926-81.44-29.232c-3.229-3.41-3.229-8.746,0-12.156
		c17.37-18.306,47.814-29.232,81.44-29.232s64.068,10.926,81.44,29.232c3.229,3.41,3.229,8.746,0,12.156
		C147.931,280.386,117.488,291.312,83.863,291.312z"/>
	<path style="fill:#FFE650;" d="M428.137,291.312c-33.625,0-64.069-10.926-81.44-29.232c-3.229-3.41-3.229-8.746,0-12.156
		c17.37-18.306,47.814-29.232,81.44-29.232s64.069,10.926,81.44,29.232c3.229,3.41,3.229,8.746,0,12.156
		C492.206,280.386,461.763,291.312,428.137,291.312z"/>
	<path style="fill:#FFE650;" d="M185.811,196.187c-24.819,0-53.267-13.707-76.495-36.94c-23.785-23.776-37.582-53.034-36.915-78.254
		c0.125-4.694,3.896-8.466,8.59-8.59c25.275-0.694,54.478,13.133,78.254,36.913c23.785,23.776,37.582,53.035,36.913,78.254
		c-0.125,4.694-3.896,8.466-8.59,8.59C186.988,196.178,186.397,196.187,185.811,196.187z"/>
	<path style="fill:#FFE650;" d="M429.25,439.626c-24.814,0-53.267-13.703-76.495-36.936c-23.785-23.785-37.582-53.038-36.914-78.258
		c0.125-4.694,3.896-8.466,8.59-8.59c25.043-0.733,54.474,13.129,78.258,36.913c23.78,23.78,37.578,53.034,36.909,78.254
		c-0.125,4.694-3.896,8.466-8.59,8.59C430.426,439.617,429.836,439.626,429.25,439.626z"/>
	<path style="fill:#FFE650;" d="M82.751,439.626c-0.586,0-1.176-0.009-1.759-0.025c-4.694-0.125-8.466-3.896-8.59-8.59
		c-0.668-25.219,13.129-54.478,36.913-78.254c23.771-23.78,53.038-37.625,78.254-36.914c4.694,0.125,8.466,3.896,8.59,8.59
		c0.668,25.219-13.129,54.478-36.913,78.254C136.022,425.919,107.565,439.626,82.751,439.626z"/>
	<path style="fill:#FFE650;" d="M326.189,196.187c-0.59,0-1.176-0.009-1.759-0.025c-4.694-0.125-8.466-3.896-8.59-8.59
		c-0.668-25.219,13.129-54.474,36.913-78.258c23.776-23.78,52.961-37.728,78.254-36.909c4.694,0.125,8.466,3.896,8.59,8.59
		c0.668,25.219-13.129,54.474-36.909,78.254C379.457,182.48,351.005,196.187,326.189,196.187z"/>
</g>
<g>
	<path style="fill:#FFD741;" d="M218.836,175.118c-1.052,0-2.121-0.185-3.159-0.586c-23.561-9.043-45.306-32.987-58.172-64.052
		c-12.871-31.069-14.426-63.378-4.16-86.426c1.906-4.293,6.828-6.358,11.229-4.651c23.561,9.043,45.306,32.987,58.172,64.052
		c12.871,31.069,14.426,63.378,4.16,86.426C225.448,173.157,222.228,175.118,218.836,175.118z"/>
	<path style="fill:#FFD741;" d="M350.586,493.186c-1.052,0-2.121-0.185-3.159-0.586c-23.561-9.043-45.306-32.987-58.172-64.052
		c-12.871-31.069-14.426-63.38-4.16-86.426c1.906-4.293,6.831-6.358,11.229-4.651c23.561,9.043,45.306,32.987,58.172,64.052
		c12.871,31.069,14.426,63.38,4.16,86.426C357.198,491.225,353.978,493.186,350.586,493.186z"/>
	<path style="fill:#FFD741;" d="M58.816,365.385c-12.78,0-24.66-2.229-34.763-6.729c-4.289-1.909-6.332-6.845-4.651-11.229
		c9.043-23.561,32.987-45.306,64.052-58.172c31.064-12.875,63.378-14.422,86.426-4.16c4.289,1.909,6.332,6.845,4.651,11.229
		c-9.043,23.561-32.987,45.306-64.052,58.172C93.032,361.725,75.187,365.385,58.816,365.385z"/>
	<path style="fill:#FFD741;" d="M376.884,233.635c-12.78,0-24.66-2.229-34.763-6.729c-4.289-1.909-6.332-6.845-4.651-11.229
		c9.043-23.561,32.987-45.306,64.052-58.172c31.064-12.871,63.375-14.426,86.426-4.16c4.289,1.909,6.332,6.845,4.651,11.229
		c-9.043,23.561-32.987,45.306-64.052,58.172C411.099,229.976,393.254,233.635,376.884,233.635z"/>
	<path style="fill:#FFD741;" d="M135.117,233.635c-16.371,0-34.216-3.659-51.663-10.888c-31.064-12.866-55.009-34.612-64.052-58.172
		c-1.681-4.384,0.362-9.319,4.651-11.229c23.043-10.263,55.358-8.707,86.426,4.16c31.064,12.866,55.009,34.612,64.052,58.172
		c1.681,4.384-0.362,9.319-4.651,11.229C159.777,231.407,147.893,233.635,135.117,233.635z"/>
	<path style="fill:#FFD741;" d="M453.185,365.385c-16.371,0-34.216-3.659-51.663-10.888c-31.064-12.866-55.009-34.612-64.052-58.172
		c-1.681-4.384,0.362-9.319,4.651-11.229c23.052-10.263,55.362-8.703,86.426,4.16c31.064,12.866,55.009,34.612,64.052,58.172
		c1.681,4.384-0.362,9.319-4.651,11.229C477.844,363.156,465.96,365.385,453.185,365.385z"/>
	<path style="fill:#FFD741;" d="M161.414,493.186c-3.392,0-6.612-1.961-8.069-5.237c-10.268-23.048-8.712-55.358,4.16-86.426
		c12.866-31.064,34.612-55.009,58.172-64.052c4.38-1.685,9.319,0.358,11.229,4.651c10.268,23.048,8.712,55.358-4.16,86.426
		c-12.866,31.064-34.612,55.009-58.172,64.052C163.535,492.996,162.466,493.186,161.414,493.186z"/>
	<path style="fill:#FFD741;" d="M293.164,175.118c-3.392,0-6.612-1.961-8.069-5.237c-10.268-23.048-8.712-55.358,4.16-86.426
		c12.866-31.064,34.612-55.009,58.172-64.052c4.384-1.689,9.314,0.358,11.229,4.651c10.268,23.048,8.712,55.358-4.16,86.426
		c-12.866,31.064-34.612,55.009-58.172,64.052C295.285,174.928,294.216,175.118,293.164,175.118z"/>
</g>
<circle style="fill:#B4D246;" cx="255.999" cy="255.999" r="35.31"/>
<g>
</g>
<g>
</g>
<g>
</g>
<g>
</g>
<g>
</g>
<g>
</g>
<g>
</g>
<g>
</g>
<g>
</g>
<g>
</g>
<g>
</g>
<g>
</g>
<g>
</g>
<g>
</g>
<g>
</g>
</svg>
